<?xml version="1.0" encoding="utf-8"?>
<!-- Generator: Adobe Illustrator 22.0.1, SVG Export Plug-In . SVG Version: 6.00 Build 0)  -->
<svg version="1.1"
	 id="svg851"
	 xmlns="http://www.w3.org/2000/svg" xmlns:xlink="http://www.w3.org/1999/xlink" x="0px" y="0px" viewBox="0 0 4532 4533.3"
	 style="enable-background:new 0 0 4532 4533.3;" xml:space="preserve">
<path fill="#236084" d="M4268.7,2270.7c2.4,1091-883.1,1997.5-1998.2,1997.5c-1107.3,0-1998.8-898-1997.9-1999.6
	C273.5,1160.3,1174,270.9,2272,271.6C3378.4,272.4,4271.6,1172.6,4268.7,2270.7z M3575.8,2242.5c3.1-6.1,4.8-9.9,7-13.6
	c96.2-164.6,196.5-326.5,301.6-485.6c4.1-6.3,8.1-12.8,11.1-19.7c11.4-26.2,0.9-42.1-27.5-41.3c-26.9,0.8-52.8,6.6-77.3,17.9
	c-11.1,5.1-20.4,12.4-27.5,22.5c-7.2,10.2-14.8,20-21.9,30.2c-126.4,181.8-243.6,369.3-348.4,564.4
	c-53.6,99.9-103.6,201.4-137.8,310c-1.3,4-3.9,8.1-7,10.9c-27.8,24.9-55.1,50.4-84.1,73.9c-14.7,11.8-32,20.6-49.1,29.1
	c-15.2,7.6-31.8,7.5-48.1,2.2c-18.7-6.1-25.9-17.1-22.7-36.5c1.9-11.3,4.8-22.8,9.5-33.2c10.8-23.9,21.2-48.1,34.8-70.4
	c32-52.3,65.2-103.8,98.9-155c25.6-39,52.1-77.4,73.3-119.1c4.8-9.5,9.3-19.3,12.5-29.3c14.6-45.4-14.4-87.5-62.1-90.5
	c-24.2-1.5-47.8,2.1-70.7,10.2c-34.7,12.2-65.8,31-95.5,52.3c-45.7,32.8-85.6,72.1-123.9,113c-3.4,3.7-6.9,7.3-10.4,10.9
	c13.8-23.5,29.2-45.9,43.1-69c12.5-20.9,23.9-42.6,35-64.3c6.2-12.1,7.7-25.3,4.5-38.9c-2.9-12-6.7-16.3-19-16.1
	c-11.5,0.2-23.1,0.9-34.5,2.7c-38.4,5.9-71.3,21.4-92.9,55.7c-7.8,12.4-15.9,24.6-23.4,37.2c-7.8,12.9-14.8,26.3-22.5,39.3
	c-77.9,131.4-156,262.8-233.6,394.4c-8.7,14.8-15.9,30.8-21.8,46.9c-5.8,16-2.3,23.1,12.9,30.1c15.3,7,31.3,12.5,47,18.5
	c16.8,6.4,31.8,2.4,44.1-9.8c10.4-10.3,20.4-21.1,29.3-32.7c59.1-77.4,119.4-153.7,186.9-224c59.1-61.6,118.3-123,183-178.8
	c15.4-13.3,32-25.4,48.3-37.7c4.6-3.5,9.7-7.1,18.9-5.8c-7.6,13.5-13.6,25.9-21,37.3c-22.3,34.8-45.2,69.1-67.6,103.9
	c-28.5,44.1-54.1,89.8-74,138.4c-13.3,32.5-24.4,65.6-26.5,101.3c-3,50.9,18.2,88.8,60.3,115.1c43.3,27.1,89.2,26.3,135.6,8.2
	c40.5-15.9,76.2-39.9,110-66.9c3.4-2.7,6.9-5.2,10.9-8.3c2.5,4.9,4.5,8.7,6.5,12.6c15.6,30.2,38.4,53,69.3,67.6
	c9.8,4.6,20.1,7.9,30.9,6.3c19.7-2.8,39.8-4.6,59-9.7c49.6-13.2,93.4-38.6,135.2-67.6c66.7-46.2,123.2-103.2,173.3-166.7
	c43.7-55.3,81.6-114.1,108.3-179.7c15.6-38.3,24.6-77.6,20.5-119.5c-4.5-45.8-32.6-83.1-75.9-96.6c-11.7-3.6-24.3-5.6-36.6-6.3
	c-50.1-2.9-97.9,8.1-144.7,24.7C3585.4,2239,3581.8,2240.3,3575.8,2242.5z M1368.5,2483.3c-2.6,6.1-4.1,9.7-5.7,13.3
	c-54.9,116-109.8,232-164.6,348c-3.2,6.8-6.3,13.8-8.4,21c-2.7,9.3,1.4,16.4,11,17.3c8.6,0.8,17.8,0.4,26.1-1.8
	c12.5-3.3,24.9-6.5,37.9-6.3c32.6,0.6,60.2-11.7,81.6-35.6c13.2-14.8,26-30.7,35.5-48c24.1-43.5,47.7-87.3,68.9-132.3
	c114.1-241.7,225-485,330.8-730.5c19.3-44.8,37.1-90.4,55.6-135.5c6.7-16.3,2.9-30.3-8.8-42.9c-18.2-19.5-40.2-33.5-64.7-43.6
	c-10.4-4.3-16.6-2.1-22.6,7.7c-4.4,7.2-7.7,15-11.6,22.5c-3.2,6.1-6.5,12.1-10.2,18.9c-3.8-3.2-6.2-5.1-8.4-7.2
	c-12.5-11.8-26.7-13-42-6.6c-7.4,3.1-14.6,6.6-21.6,10.3c-51.8,27-99.8,59.7-146.1,95.2c-116.3,89.2-223.3,188.8-324.2,294.8
	c-60.7,63.7-118.8,129.8-178.1,194.8c-4.5,4.9-8.1,9.8-16.1,10c-38.6,1.2-77.3,2.7-115.8,4.8c-16.8,0.9-33.7,2.4-50.2,5.7
	c-26,5.2-50.2,15.2-70,33.6c-17.2,16-26.2,35.6-24.3,59.4c1.7,20.8,8.2,26.6,28.8,25.4c4.9-0.3,9.7-1.2,14.5-2
	c8.3-1.3,16.6-3.4,25-3.8c29.7-1.2,59.5-1.9,89.2-2.7c2.5-0.1,5,0.3,9.9,0.7c-3.9,5.3-6.7,9.1-9.5,12.8
	c-24.7,33.1-50,65.8-74.1,99.4c-33.6,47-66,94.9-90.8,147.3c-7.7,16.3-13.5,33.7-18.7,51.1c-3.9,13-2.7,26.5,3.6,39
	c11.2,22.2,28.8,37.2,53,43.2c18.3,4.5,34.5-0.1,46.5-15.4c5.5-7,10.3-14.5,14.9-22.1c70.6-119,147.6-233.6,233.5-342.1
	c5.2-6.6,10.6-9.4,19.1-9c28.8,1.3,57.7,1.8,86.6,2.7c64.8,2.1,129.7,4.2,194.5,6.4C1354.5,2481.4,1360.6,2482.4,1368.5,2483.3z
	 M2379,2242.7c3.2-6.1,5-10,7.1-13.6c16.6-28.4,33.1-56.8,50-85c81-135.3,164.5-269.1,251.4-400.7c5.8-8.8,11-18.5,14.1-28.5
	c5.8-18.6-2.7-30.3-22.1-32.5c-5.7-0.6-11.6-0.6-17.3,0.2c-11.4,1.5-22.9,3.2-34.1,5.6c-30.2,6.6-56,19.9-71.8,48.1
	c-1.3,2.3-3.1,4.3-4.7,6.5c-127,181.4-244.2,368.8-349.7,563.5c-45.1,83.2-87.4,167.8-121.1,256.3c-18.3,48.2-33.8,97-40,148.7
	c-8.2,67.8,37,120.8,80.5,140.8c10.7,4.9,21.7,8.5,33.5,6.8c19.3-2.7,38.9-4.7,57.6-9.7c48.7-13,91.8-37.8,133-66.1
	c76.9-53,140.4-119.8,195.6-194.7c37.6-50.9,70.2-104.8,92.4-164.4c13.7-36.7,20.9-74,15.6-113.6c-6.1-45.2-36.3-81.1-80.3-92.9
	c-18.2-4.9-36.8-6.3-55.5-5.3c-41.9,2.4-82.7,10.7-122,25.8C2388,2239.5,2384.8,2240.6,2379,2242.7z M2311.3,1719.6
	c0-0.2,0-0.3,0-0.5c-4,0-8,0.4-12-0.1c-21.5-2.4-37.9,6.3-51,22.8c-11.9,14.9-24.5,29.3-36.1,44.5c-74,96.7-143,197-211.5,297.6
	c-122.9,180.7-244.2,362.5-357.3,549.5c-27.1,44.8-51.7,91.1-77.3,136.8c-11.3,20.1-13.6,42-12.3,64.5c0.2,3.6,1.8,8.7,4.4,10.2
	c17.4,9.5,35.3,17.6,55.3,6.5c2.6-1.4,5.7-2.1,8.7-2.7c16.9-3.7,34.1-6.2,50.6-11.1c34.7-10.3,35.2-11.2,54.3-42.3
	c201.6-328.1,411.6-650.9,626.7-970.3c17.4-25.8,34.4-51.8,52.3-77.2c8-11.3,3.1-24.8-12.4-27.7c-3-0.6-6.2-0.4-9.3-0.4
	C2360,1719.6,2335.6,1719.6,2311.3,1719.6z M3484.8,2401.4c-40.2,74.2-79.3,148.9-109,228.1c-7.8,20.7-13.6,42.2-18.9,63.7
	c-2.2,8.8-1.9,18.6-0.9,27.8c1.2,11.1,6.6,22.4,24.2,20.1c9.2-1.2,18.8-2.5,27-6.3c16.5-7.6,32.8-15.9,48-25.7
	c48.1-30.9,89.7-69.6,128.7-111.3c35.9-38.4,68.7-79.1,94.4-125.2c14.6-26.2,25.8-53.8,28.9-83.7c1.3-12.1,0.5-24.9-1.9-36.9
	c-3.1-15.3-12.4-22.2-27.8-20.6c-14.9,1.6-30,4.3-44,9.3c-28,10-55.3,21.9-82.8,33c-16.2,6.5-32.3,11.9-47.2-6.4
	C3496.3,2380.5,3490.5,2390.9,3484.8,2401.4z M1344.4,2147.5c-85.2,85-173.7,181-182.4,198.8c14.6,0.7,28.6,1.5,42.7,2
	c45.3,1.7,90.6,3.3,135.8,5.1c26.2,1.1,52.4,2.3,78.5,3.9c7.3,0.5,12-1.6,14.4-8.6c0.9-2.5,2.2-4.8,3.4-7.2
	c73.1-152.5,146.3-305.1,219.4-457.6c1.3-2.7,2.5-5.3,3.7-8C1547.6,1958.4,1442.8,2049.3,1344.4,2147.5z M2279.2,2417.7
	c-36.1,67.3-70.8,135.3-98.4,206.6c-9.1,23.6-18.4,47.3-21.3,72.6c-1.1,9.5-0.7,19.6,1.1,28.9c2.2,11.2,8.8,15.5,20.1,15.2
	c6.1-0.2,12.4-1.1,18.4-2.6c20.5-5.2,38.5-15.8,56.1-27.1c47-30.2,88.1-67.4,126.5-107.8c39.3-41.3,75.2-85.3,102.4-135.7
	c12.7-23.6,22.1-48.5,26.1-75.1c2.1-14.6,2.9-29.3-2.1-43.5c-4.6-13.1-12.4-19.5-26-17.9c-15.3,1.7-30.9,4.2-45.3,9.4
	c-28,9.9-55.3,21.9-82.8,33c-16.2,6.5-32.3,12-47.1-6.5C2296.7,2385.8,2287.8,2401.7,2279.2,2417.7z"/>
</svg>
